<svg width="60" height="25" viewBox="0 0 60 25" fill="none" xmlns="http://www.w3.org/2000/svg">
<path d="M9.35252 5.42966C10.0281 5.18884 10.7486 5.06041 11.4962 5.06041C14.7688 5.06041 17.501 7.54566 18.1255 10.8497L22.7642 9.83826C21.7014 4.22557 17.0597 0 11.4962 0C10.2202 0 8.99824 0.221553 7.85132 0.632551L9.35252 5.42966Z" fill="white"/>
<path d="M3.8791 21.5036L7.01661 17.7115C5.61749 16.3854 4.73479 14.4492 4.73479 12.2914C4.73479 10.1369 5.61749 8.20072 7.01661 6.87783L3.8791 3.08252C1.5012 5.33658 0 8.62778 0 12.2914C0 15.9583 1.5012 19.2495 3.8791 21.5036" fill="white"/>
<path d="M18.1255 13.7427C17.498 17.0435 14.7689 19.5255 11.4992 19.5255C10.7486 19.5255 10.0251 19.3971 9.35252 19.1531L7.85132 23.9566C8.99824 24.3644 10.2232 24.5859 11.4992 24.5859C17.0567 24.5859 21.6954 20.3668 22.7642 14.7605L18.1255 13.7427Z" fill="white"/>
<path d="M26.8205 17.8686C26.6674 17.6053 26.4632 17.1847 26.3371 16.8733C25.6015 15.0495 25.5685 13.1614 26.187 11.3505C26.8685 9.36291 28.1716 7.84415 29.8559 7.06711C31.9726 6.0942 34.3115 6.28364 36.3411 7.57122C37.6291 8.36111 38.5419 9.58126 39.2354 11.3087C39.3225 11.5303 39.4006 11.7647 39.4786 11.967L26.8205 17.8686ZM31.0479 9.99868C29.5437 10.689 28.7691 12.1982 28.9312 13.9642L35.2963 11.0326C34.2004 9.65832 32.7773 9.20237 31.0479 9.99868V9.99868ZM36.0889 16.3756C36.0859 16.3756 36.0859 16.3788 36.0859 16.3788L35.9538 16.2824C35.5725 16.9407 34.981 17.4769 34.2334 17.8237C32.8103 18.4851 31.4922 18.315 30.5435 17.4255L30.4564 17.5668C30.4564 17.5668 30.4564 17.5636 30.4534 17.5636L28.8381 20.1484C29.2404 20.447 29.6698 20.6975 30.1201 20.8997C31.9036 21.6928 33.729 21.6543 35.5275 20.8195C36.8275 20.2158 37.8483 19.2975 38.5449 18.1319L36.0889 16.3756ZM43.9012 3.26538V17.631L45.9908 18.5365L44.8049 21.497L42.499 20.4695C41.9826 20.2287 41.6283 19.8626 41.3641 19.4484C41.1089 19.0278 40.9198 18.4466 40.9198 17.6696V3.26538H43.9012ZM49.3115 13.9738C49.3115 12.7504 49.8189 11.6523 50.6175 10.9074L48.4738 8.35148C47.0207 9.72575 46.1049 11.7326 46.1049 13.9674C46.1019 16.2054 47.0177 18.2154 48.4678 19.5897L50.6085 17.0338C49.8129 16.2857 49.3115 15.1939 49.3115 13.9738V13.9738ZM53.1185 18.0485C52.6982 18.0485 52.2899 17.9714 51.9116 17.8365L50.8877 21.0892C51.5873 21.3396 52.3349 21.4777 53.1155 21.4777C56.5082 21.4809 59.3395 18.9058 59.997 15.4861L56.8505 14.799C56.4932 16.6581 54.959 18.0517 53.1185 18.0485V18.0485ZM53.1275 6.46988C52.3499 6.46988 51.6023 6.60474 50.9028 6.85198L51.9176 10.1078C52.2989 9.97299 52.7042 9.89914 53.1245 9.89914C54.968 9.90235 56.5052 11.3023 56.8535 13.1646L60 12.4839C59.3545 9.05788 56.5233 6.47309 53.1275 6.46988V6.46988Z" fill="white"/>
</svg>
