<svg width="38" height="29" viewBox="0 0 38 29" fill="none" xmlns="http://www.w3.org/2000/svg">
<path d="M36.7836 20.2432C36.7836 21.4258 35.3726 22.8795 34.2249 22.8795H33.18C33.1811 15.6418 33.1811 7.52764 33.18 6.08737C33.1796 6.04473 33.1875 6.00241 33.2035 5.96285C33.2194 5.92329 33.243 5.88727 33.2729 5.85684C33.3027 5.8264 33.3383 5.80217 33.3776 5.78551C33.4169 5.76885 33.459 5.76011 33.5017 5.75977H36.4605C36.6382 5.75977 36.7838 5.90889 36.7838 6.08994V20.2432H36.7836ZM31.9621 25.4193C31.9621 26.1679 31.5958 27.422 29.142 27.422C24.3869 27.422 21.4679 23.6965 21.4679 21.0247C21.4679 21.0247 21.4626 12.3853 21.4626 6.0901C21.4621 6.04739 21.47 6.00501 21.486 5.96539C21.502 5.92577 21.5256 5.88969 21.5555 5.85924C21.5855 5.82879 21.6212 5.80457 21.6605 5.78797C21.6999 5.77137 21.7421 5.76271 21.7849 5.7625H24.7473C24.9251 5.7625 25.0712 5.91065 25.0712 6.09283V19.9741C25.0712 22.2677 26.8864 24.128 29.1241 24.128H31.9637L31.9621 25.4193ZM36.6851 4.51485H33.2766C32.5519 4.51485 31.9617 5.12014 31.9617 5.86266V22.881H29.122C27.5552 22.881 26.2854 21.5792 26.2854 19.9738V5.86266C26.2854 5.11837 25.696 4.51421 24.9699 4.51421H21.56C20.8338 4.51421 20.2446 5.11837 20.2435 5.86266C20.2417 12.0157 20.2488 21.025 20.2488 21.025C20.2493 25.7606 25.4281 28.6684 29.1411 28.6684C31.6316 28.6684 33.1784 27.4207 33.1784 25.4108V24.1277H34.2245C36.0593 24.1277 38 22.1314 38 20.2432V5.86266C38.0018 5.11837 37.4125 4.51421 36.6852 4.51421V4.51485H36.6851ZM16.5406 22.5784C16.5411 22.6211 16.5331 22.6634 16.5171 22.7029C16.5011 22.7425 16.4775 22.7785 16.4475 22.8089C16.4176 22.8392 16.382 22.8634 16.3427 22.88C16.3033 22.8965 16.2612 22.9052 16.2185 22.9054H13.2561C13.0759 22.9054 12.9314 22.756 12.9322 22.5759V8.69439C12.9322 6.40101 11.1165 4.54069 8.8793 4.54069H6.03954V3.24906C6.03954 2.50204 6.40583 1.24637 8.85956 1.24637C13.6149 1.24637 16.5347 4.97166 16.5347 7.64369C16.5347 7.64369 16.54 16.3249 16.54 22.5783H16.5406V22.5784ZM1.53962 22.9083C1.35937 22.903 1.21523 22.7577 1.21732 22.5775V8.42682C1.21732 7.24402 2.62853 5.78834 3.7757 5.78834H4.82159C4.81998 16.153 4.81998 21.4566 4.82159 22.5768C4.8224 22.6634 4.78889 22.7467 4.7284 22.8086C4.66791 22.8705 4.58535 22.906 4.4988 22.9072H1.5401L1.53962 22.9083ZM17.7506 7.64385C17.7512 2.90781 12.5722 0 8.85972 0C6.36859 0 4.82159 1.24749 4.82159 3.25757V4.54069H3.77618C1.94074 4.54069 0 6.53697 0 8.42538V22.8057C0 23.55 0.589236 24.1542 1.31507 24.1542H4.72287C4.74406 24.1542 4.7622 24.1484 4.78339 24.1484C5.47984 24.1148 6.03778 23.5283 6.03778 22.8057V5.78738H8.87802C10.4441 5.78738 11.7146 7.08912 11.7146 8.69455V22.8059C11.7146 23.5502 12.304 24.1543 13.0296 24.1543H16.4402C17.1663 24.1543 17.7552 23.5518 17.7552 22.8059C17.7578 16.5381 17.7511 7.64353 17.7511 7.64353L17.7506 7.64385Z" fill="white"/>
</svg>
